# xmcd
#
# Track frame offsets: 
#        150
#        11464
#        21148
#        33089
#        47783
#        60802
#        71555
#        82562
#        94477
#        105360
#        116857
#        127151
#        139844
#        149799
#
# Disc length: 2145 seconds
#
# Revision: 0
# Processed by: cddbd v1.5.2PL0 Copyright (c) Steve Scherf et al.
# Submitted via: ExactAudioCopy v0.95b3
#
DISCID=ba085f0e
DTITLE=Various  - Mindrocker Vol 03
DYEAR=1900
DGENRE=
TTITLE0=The Charlatans - 32-20
TTITLE1=The Charlatans - The Shadow Knows
TTITLE2=The Shades - Ballot Bachs
TTITLE3=The McCoys - Don't Worry Mother (Your Son's Heart Is Pure)
TTITLE4=The Myddle Class - I Happen To Love You
TTITLE5=The Next Five - He Stole My Love
TTITLE6=The Everpresent Fullness - Doin' A Number
TTITLE7=The Balloon Farm - A Question Of Temperature
TTITLE8=The Shags - Hide Away
TTITLE9=The Fifth Order - Today (I Got A Letter)
TTITLE10=The Shapes Of Things - So Mystifying
TTITLE11=The Marauders - Out Of Sight, Out Of Mind
TTITLE12=The Gray Things - Charity
TTITLE13=The Kords - Boris The Spider
EXTD=
EXTT0=
EXTT1=
EXTT2=
EXTT3=
EXTT4=
EXTT5=
EXTT6=
EXTT7=
EXTT8=
EXTT9=
EXTT10=
EXTT11=
EXTT12=
EXTT13=
PLAYORDER=
